<svg width="1200" height="1400" viewBox="0 0 1200 1400" fill="none" xmlns="http://www.w3.org/2000/svg" role="img" aria-labelledby="title desc">
  <title id="title">Imaginative portrait of Rabbi Yoḥanan</title>
  <desc id="desc">A stylized illustration of Rabbi Yoḥanan seated in a basalt study hall at dusk, holding an open scroll, with lamplight and the Kinneret visible through an arch.</desc>
  <defs>
    <linearGradient id="sky" x1="600" y1="0" x2="600" y2="560" gradientUnits="userSpaceOnUse">
      <stop offset="0" stop-color="#17365C"/>
      <stop offset="0.48" stop-color="#355F85"/>
      <stop offset="1" stop-color="#F2BB74"/>
    </linearGradient>
    <linearGradient id="stone" x1="0" y1="0" x2="1200" y2="1400" gradientUnits="userSpaceOnUse">
      <stop offset="0" stop-color="#2F3947"/>
      <stop offset="1" stop-color="#1E2630"/>
    </linearGradient>
    <linearGradient id="robe" x1="436" y1="588" x2="768" y2="1166" gradientUnits="userSpaceOnUse">
      <stop offset="0" stop-color="#283E68"/>
      <stop offset="1" stop-color="#16253E"/>
    </linearGradient>
    <linearGradient id="robeTrim" x1="452" y1="658" x2="739" y2="1128" gradientUnits="userSpaceOnUse">
      <stop offset="0" stop-color="#C98942"/>
      <stop offset="1" stop-color="#8A5924"/>
    </linearGradient>
    <radialGradient id="lampGlow" cx="0" cy="0" r="1" gradientUnits="userSpaceOnUse" gradientTransform="translate(833 294) rotate(90) scale(168 168)">
      <stop offset="0" stop-color="#FFF3B8" stop-opacity="0.92"/>
      <stop offset="1" stop-color="#FFF3B8" stop-opacity="0"/>
    </radialGradient>
    <radialGradient id="parchmentGlow" cx="0" cy="0" r="1" gradientUnits="userSpaceOnUse" gradientTransform="translate(593 880) rotate(90) scale(214 282)">
      <stop offset="0" stop-color="#FFF4D4" stop-opacity="0.72"/>
      <stop offset="1" stop-color="#FFF4D4" stop-opacity="0"/>
    </radialGradient>
    <filter id="softShadow" x="245" y="150" width="710" height="1110" filterUnits="userSpaceOnUse" color-interpolation-filters="sRGB">
      <feDropShadow dx="0" dy="28" stdDeviation="28" flood-color="#05070B" flood-opacity="0.22"/>
    </filter>
  </defs>

  <rect width="1200" height="1400" fill="#EEE6D8"/>
  <rect x="54" y="52" width="1092" height="1296" rx="34" fill="url(#stone)"/>
  <rect x="86" y="84" width="1028" height="1232" rx="26" fill="#202935" stroke="#4A5665" stroke-width="3"/>

  <path d="M320 206C320 161.817 355.817 126 400 126H800C844.183 126 880 161.817 880 206V642H320V206Z" fill="#192330"/>
  <path d="M366 218C366 189.281 389.281 166 418 166H782C810.719 166 834 189.281 834 218V596H366V218Z" fill="url(#sky)"/>
  <path d="M422 496C520 420 640 405 780 458V596H422V496Z" fill="#55728A" fill-opacity="0.92"/>
  <path d="M384 560C470 524 566 518 670 540C736 554 793 574 834 600H366C370 585 376 571 384 560Z" fill="#27405D"/>
  <path d="M334 642H866V722H334V642Z" fill="#25303C"/>
  <path d="M320 640H880" stroke="#5B6675" stroke-width="10" stroke-linecap="round"/>
  <path d="M402 166V642" stroke="#6A7787" stroke-width="8" stroke-opacity="0.42"/>
  <path d="M798 166V642" stroke="#6A7787" stroke-width="8" stroke-opacity="0.42"/>

  <circle cx="834" cy="294" r="168" fill="url(#lampGlow)"/>
  <path d="M824 252C824 228.804 842.804 210 866 210C889.196 210 908 228.804 908 252V267H824V252Z" fill="#B78A41"/>
  <rect x="818" y="267" width="96" height="32" rx="12" fill="#8E642F"/>
  <path d="M866 214C882 236 888 255 888 271C888 288 877 299 866 299C855 299 844 288 844 271C844 255 850 236 866 214Z" fill="#FFF1AB"/>
  <path d="M866 230C876 244 880 255 880 265C880 276 873 284 866 284C859 284 852 276 852 265C852 255 856 244 866 230Z" fill="#F28A2D"/>

  <rect x="245" y="1088" width="710" height="120" rx="28" fill="#1A222C" fill-opacity="0.78" filter="url(#softShadow)"/>

  <g filter="url(#softShadow)">
    <path d="M600 374C676 374 739 428 752 521L768 707H432L448 521C461 428 524 374 600 374Z" fill="#5A3F2B"/>
    <path d="M410 1166C429 942 458 815 487 716H713C742 815 771 942 790 1166H410Z" fill="url(#robe)"/>
    <path d="M460 1166C477 958 502 832 532 736H668C698 832 723 958 740 1166H460Z" fill="url(#robeTrim)" opacity="0.94"/>
    <path d="M514 714C543 821 561 932 570 1166H630C639 932 657 821 686 714H514Z" fill="#E8D9B6"/>
    <rect x="453" y="725" width="294" height="417" rx="34" fill="url(#robe)"/>
    <path d="M453 762C518 788 579 802 644 798C689 795 726 780 747 766V837C726 848 689 862 644 865C579 869 518 856 453 829V762Z" fill="#2E4975" opacity="0.56"/>
    <ellipse cx="600" cy="470" rx="124" ry="140" fill="#D2A07A"/>
    <path d="M474 462C487 396 540 344 602 344C664 344 715 390 726 454C691 436 647 426 599 426C550 426 508 438 474 462Z" fill="#D3D3D8"/>
    <path d="M487 452C504 397 547 356 602 356C652 356 694 392 714 446C690 430 648 419 600 419C556 419 516 429 487 452Z" fill="#E3E4E8"/>
    <path d="M490 542C521 607 560 643 600 643C640 643 679 607 710 542C685 560 643 572 600 572C557 572 515 560 490 542Z" fill="#6E4B34"/>
    <path d="M522 606C545 657 572 700 600 700C628 700 655 657 678 606C658 617 631 625 600 625C569 625 542 617 522 606Z" fill="#D1D1D5"/>
    <path d="M522 514C536 543 565 563 600 563C635 563 664 543 678 514C663 526 633 536 600 536C567 536 537 526 522 514Z" fill="#704E38"/>
    <path d="M529 462C546 450 570 444 600 444C630 444 654 450 671 462" stroke="#6C4933" stroke-width="8" stroke-linecap="round"/>
    <path d="M548 476C556 470 569 466 587 466" stroke="#3A281E" stroke-width="7" stroke-linecap="round"/>
    <path d="M613 466C631 466 644 470 652 476" stroke="#3A281E" stroke-width="7" stroke-linecap="round"/>
    <ellipse cx="567" cy="496" rx="10" ry="13" fill="#1C1716"/>
    <ellipse cx="633" cy="496" rx="10" ry="13" fill="#1C1716"/>
    <path d="M598 494C607 513 609 528 604 543" stroke="#8B624A" stroke-width="7" stroke-linecap="round"/>
    <path d="M563 551C581 561 620 561 638 551" stroke="#6B4335" stroke-width="7" stroke-linecap="round"/>
    <path d="M488 704C500 659 527 635 562 624" stroke="#D2A07A" stroke-width="26" stroke-linecap="round"/>
    <path d="M712 704C700 659 673 635 638 624" stroke="#D2A07A" stroke-width="26" stroke-linecap="round"/>
    <path d="M536 841C550 806 579 790 621 795C661 799 689 815 704 844" stroke="#D2A07A" stroke-width="26" stroke-linecap="round"/>
    <ellipse cx="600" cy="886" rx="284" ry="42" fill="url(#parchmentGlow)"/>
    <path d="M394 792C424 763 469 753 529 765L547 952C487 966 441 975 410 998C407 932 400 864 394 792Z" fill="#F5E7C6"/>
    <path d="M806 792C776 763 731 753 671 765L653 952C713 966 759 975 790 998C793 932 800 864 806 792Z" fill="#F5E7C6"/>
    <path d="M410 998C452 975 499 967 547 952" stroke="#B99159" stroke-width="3"/>
    <path d="M790 998C748 975 701 967 653 952" stroke="#B99159" stroke-width="3"/>
    <path d="M447 815C482 811 514 812 543 819" stroke="#B99159" stroke-width="3" stroke-linecap="round"/>
    <path d="M439 850C483 844 518 846 548 853" stroke="#B99159" stroke-width="3" stroke-linecap="round"/>
    <path d="M434 886C479 881 516 883 551 891" stroke="#B99159" stroke-width="3" stroke-linecap="round"/>
    <path d="M753 815C718 811 686 812 657 819" stroke="#B99159" stroke-width="3" stroke-linecap="round"/>
    <path d="M761 850C717 844 682 846 652 853" stroke="#B99159" stroke-width="3" stroke-linecap="round"/>
    <path d="M766 886C721 881 684 883 649 891" stroke="#B99159" stroke-width="3" stroke-linecap="round"/>
  </g>

  <path d="M54 1276H1146" stroke="#C8B18A" stroke-width="3" stroke-dasharray="10 14" opacity="0.8"/>
</svg>
